<svg width="978" height="908" viewBox="0 0 978 908" fill="none" xmlns="http://www.w3.org/2000/svg">
<path d="M974.098 667.273C971.549 657.664 967.424 648.543 961.894 640.282C963.079 635.934 963.978 631.514 964.586 627.048C968.513 598.714 958.692 572.771 940.177 552.697C930.148 541.735 919.398 534.497 908.017 530.053C915.487 498.08 919.269 465.357 919.288 432.523C919.288 417.529 918.44 402.841 917.015 388.368C916.29 381.13 915.361 373.891 914.327 366.742C911.068 345.533 906.231 324.596 899.858 304.107C895.617 290.563 890.859 277.324 885.38 264.4C877.181 245.158 867.608 226.531 856.735 208.664C849.601 196.778 841.834 185.284 833.466 174.231C829.332 168.647 825.091 163.164 820.643 157.893C807.472 141.883 793.158 126.85 777.813 112.911C772.749 108.246 767.474 103.705 762.097 99.3416C756.821 94.8976 751.343 90.6572 745.859 86.5186C734.796 78.2455 723.215 70.4898 711.426 63.2514C646.078 23.5654 569.45 0.807129 487.546 0.807129C249.079 0.807129 55.8047 194.085 55.8047 432.54C55.798 465.788 59.6503 498.923 67.2841 531.283C57.043 535.731 47.2217 542.66 38.1213 552.688C19.611 572.75 9.78552 598.599 13.7166 626.934C14.3109 631.436 15.2091 635.893 16.4051 640.274C10.8751 648.539 6.7512 657.661 4.20062 667.273C-1.48605 688.899 0.384064 708.405 7.61432 725.489C-0.243549 747.823 1.71986 771.608 11.9567 792.289C19.4032 807.389 30.0557 819.071 43.1889 829.515C58.8028 841.927 78.3478 852.473 101.926 862.59C130.054 874.586 164.386 885.857 180 889.992C220.332 900.436 259.007 907.055 298.203 907.377C354.043 907.895 402.132 894.762 436.566 861.157C453.48 863.231 470.505 864.268 487.546 864.261C505.55 864.221 523.536 863.089 541.402 860.869C575.751 894.686 624.026 907.937 680.07 907.403C719.262 907.093 757.937 900.474 798.163 890.017C813.883 885.883 848.203 874.612 876.343 862.616C899.921 852.481 919.466 841.935 935.186 829.54C948.218 819.096 958.866 807.414 966.312 792.314C976.655 771.633 978.517 747.849 970.761 725.515C977.923 708.426 979.785 688.882 974.098 667.273ZM934.084 724.043C942.005 739.08 942.514 756.067 935.521 771.892C924.92 795.872 898.585 814.763 847.435 835.04C815.63 847.656 786.506 855.721 786.247 855.793C744.18 866.703 706.133 872.246 673.196 872.246C618.658 872.246 578.075 857.196 552.339 827.475C508.816 834.889 464.374 835.141 420.769 828.222C394.999 857.451 354.645 872.246 300.565 872.246C267.628 872.246 229.581 866.703 187.514 855.793C187.255 855.721 158.144 847.656 126.326 835.04C75.1801 814.763 48.8374 795.884 38.2401 771.892C31.2473 756.067 31.7562 739.08 39.6776 724.043C40.4113 722.648 41.1958 721.283 42.0354 719.968C37.2877 712.835 34.1032 704.778 32.6911 696.327C31.2791 687.876 31.6715 679.221 33.8425 670.932C36.9891 658.97 43.4942 649.022 52.3232 641.877C48.0714 634.888 45.2814 627.11 44.1218 619.013C41.5774 601.402 47.421 583.817 60.5754 569.48C70.8123 558.324 85.2897 552.184 101.319 552.184H101.743C89.6594 513.449 83.5325 473.103 83.5723 432.528C83.5723 211.225 262.98 31.8088 484.311 31.8088C705.641 31.8088 885.049 211.208 885.049 432.528C885.079 473.211 878.909 513.661 866.751 552.485C868.685 552.295 870.582 552.199 872.442 552.196C888.472 552.196 902.949 558.336 913.186 569.493C926.332 583.817 932.184 601.415 929.639 619.025C928.48 627.123 925.69 634.901 921.438 641.89C930.267 649.035 936.772 658.983 939.919 670.945C942.09 679.234 942.482 687.888 941.07 696.34C939.658 704.791 936.474 712.848 931.726 719.981C932.565 721.283 933.358 722.648 934.084 724.043Z" fill="white"/>
<path d="M126.615 467.492C126.785 469.236 126.966 470.974 127.158 472.707C126.963 470.972 126.782 469.233 126.615 467.492Z" fill="#FFD21E"/>
<path d="M129.283 488.601C129.566 490.319 129.849 492.032 130.131 493.74C129.834 492.032 129.552 490.319 129.283 488.601Z" fill="#FFD21E"/>
<path d="M130.129 493.74C130.872 498.065 131.691 502.362 132.584 506.631C131.685 502.362 130.867 498.065 130.129 493.74Z" fill="#FFD21E"/>
<path d="M132.594 506.63C133.128 509.175 133.693 511.719 134.29 514.263C133.693 511.725 133.128 509.18 132.594 506.63Z" fill="#FFD21E"/>
<path d="M837.283 500.237C837.594 498.614 837.892 496.986 838.178 495.352C837.895 496.972 837.597 498.6 837.283 500.237Z" fill="#FFD21E"/>
<path d="M931.729 719.982C936.477 712.848 939.662 704.792 941.074 696.34C942.486 687.889 942.093 679.234 939.922 670.945C936.776 658.983 930.27 649.035 921.441 641.89C925.693 634.902 928.483 627.123 929.643 619.026C932.187 601.415 926.344 583.83 913.189 569.493C902.952 558.337 888.475 552.197 872.445 552.197C870.585 552.197 868.688 552.293 866.755 552.485C878.901 513.661 885.06 473.212 885.019 432.532C885.019 211.23 705.611 31.8135 484.302 31.8135C262.992 31.8135 83.563 211.213 83.563 432.532C83.5231 473.108 89.6501 513.454 101.734 552.188H101.31C85.2804 552.188 70.8029 558.328 60.5661 569.485C47.4202 583.809 41.5681 601.407 44.1125 619.017C45.2721 627.115 48.0621 634.893 52.3138 641.882C43.4849 649.027 36.9798 658.975 33.8332 670.937C31.6627 679.228 31.2718 687.885 32.686 696.337C34.1003 704.79 37.2877 712.848 42.0388 719.982C41.1907 721.296 40.4147 722.661 39.681 724.057C31.7596 739.093 31.2507 756.08 38.2435 771.905C48.845 795.885 75.1835 814.776 126.33 835.054C158.134 847.669 187.259 855.734 187.518 855.806C229.584 866.717 267.631 872.259 300.568 872.259C354.649 872.259 395.003 857.464 420.773 828.235C464.377 835.154 508.819 834.902 552.342 827.489C578.079 857.21 618.661 872.259 673.2 872.259C706.137 872.259 744.184 866.717 786.251 855.806C786.509 855.734 815.621 847.669 847.438 835.054C898.589 814.776 924.927 795.885 935.525 771.905C942.517 756.08 942.009 739.093 934.087 724.057C933.362 722.649 932.569 721.283 931.729 719.982ZM402.335 782.477C400.226 786.183 397.851 789.968 395.21 793.833C388.548 803.585 379.787 811.036 369.618 816.578C350.171 827.179 325.567 830.885 300.568 830.885C261.075 830.885 220.59 821.641 197.899 815.755C196.783 815.467 58.8062 776.493 76.2776 743.321C79.2121 737.745 84.0549 735.514 90.1444 735.514C114.74 735.514 159.525 772.139 178.773 772.139C183.073 772.139 186.105 770.307 187.344 765.842C195.545 736.422 62.6694 724.057 73.8604 681.457C75.8366 673.918 81.1925 670.856 88.7238 670.856C121.241 670.852 194.222 728.038 209.488 728.038C210.659 728.038 211.498 727.695 211.952 726.974C212.02 726.864 212.088 726.758 212.151 726.647C219.314 714.817 215.205 706.217 166.119 676.153C164.593 675.22 163.022 674.264 161.408 673.286C107.395 640.592 69.4841 620.921 91.0477 597.451C93.5284 594.741 97.0439 593.541 101.314 593.541C106.382 593.541 112.514 595.237 119.265 598.078C147.791 610.108 187.327 642.916 203.844 657.223C208.712 661.464 211.583 664.055 211.583 664.055C211.583 664.055 232.494 685.799 245.139 685.799C248.048 685.799 250.516 684.655 252.191 681.818C261.16 666.701 168.914 596.797 163.715 567.958C160.187 548.414 166.187 538.517 177.285 538.517C182.56 538.517 189.002 540.76 196.105 545.272C218.156 559.266 260.728 632.421 276.312 660.879C281.536 670.415 290.459 674.448 298.495 674.448C314.439 674.448 326.907 658.593 299.953 638.451C259.447 608.141 273.661 558.6 292.994 555.551C293.818 555.419 294.65 555.352 295.484 555.352C313.065 555.352 320.821 585.649 320.821 585.649C320.821 585.649 343.551 642.73 382.599 681.746C418.029 717.162 422.978 746.225 402.335 782.477ZM528.599 789.164L526.576 789.406C525.423 789.541 524.274 789.673 523.12 789.8C521.305 789.989 519.486 790.169 517.662 790.338L515.881 790.5L514.257 790.635L511.95 790.822C511.102 790.885 510.254 790.949 509.406 791.004L506.862 791.174L506.302 791.208C505.636 791.246 504.97 791.288 504.3 791.322L503.452 791.369C502.663 791.411 501.875 791.449 501.082 791.483L498.325 791.602L495.823 791.687L494.157 791.733H493.309C492.787 791.733 492.27 791.763 491.748 791.767C491.472 791.767 491.197 791.767 490.921 791.767C490.4 791.767 489.882 791.767 489.361 791.793L487.24 791.818C486.252 791.818 485.268 791.818 484.272 791.818C481.945 791.818 479.624 791.796 477.309 791.75L475.43 791.708C474.896 791.708 474.361 791.683 473.831 791.666L471.843 791.606L469.37 791.513L467.144 791.415L466.567 791.39L464.447 791.28C463.857 791.246 463.272 791.216 462.687 791.178L461.317 791.097C459.59 790.987 457.868 790.866 456.152 790.733L454.35 790.589C453.591 790.529 452.832 790.461 452.077 790.394C451.191 790.317 450.304 790.232 449.418 790.148C447.928 790.009 446.444 789.858 444.966 789.694H444.893C466.563 741.353 455.605 696.206 411.817 652.453C383.099 623.771 363.991 581.418 360.03 572.118C352.007 544.594 330.77 513.995 295.509 513.995C292.527 513.998 289.549 514.234 286.604 514.699C271.155 517.129 257.649 526.021 248.014 539.404C237.603 526.453 227.485 516.158 218.33 510.344C204.535 501.596 190.766 497.161 177.348 497.161C160.607 497.161 145.641 504.034 135.209 516.505L134.947 516.823C134.747 516.001 134.556 515.182 134.361 514.355L134.336 514.249C133.751 511.722 133.185 509.178 132.64 506.617C131.743 502.348 130.925 498.051 130.184 493.726C129.902 492.03 129.619 490.317 129.336 488.586C129.336 488.527 129.336 488.472 129.311 488.413C129.209 487.764 129.111 487.111 129.014 486.462C128.955 486.076 128.895 485.686 128.84 485.3C128.743 484.634 128.645 483.964 128.552 483.299C128.429 482.425 128.306 481.547 128.191 480.674C128.077 479.8 127.958 478.923 127.848 478.045C127.738 477.167 127.631 476.289 127.525 475.411C127.419 474.534 127.33 473.741 127.237 472.905L127.212 472.693C127.022 470.96 126.841 469.222 126.669 467.478C126.508 465.801 126.358 464.124 126.219 462.444C126.181 462.02 126.147 461.571 126.113 461.13C126.054 460.388 125.999 459.641 125.944 458.895C125.897 458.28 125.855 457.665 125.816 457.046C125.816 456.902 125.795 456.758 125.787 456.622C125.732 455.8 125.677 454.973 125.63 454.146C125.575 453.251 125.528 452.356 125.481 451.462C125.435 450.567 125.388 449.672 125.35 448.773C125.316 447.989 125.282 447.208 125.252 446.424L125.227 445.712C125.202 444.991 125.176 444.266 125.155 443.545L125.104 441.7C125.104 440.967 125.07 440.229 125.057 439.495C125.045 438.762 125.028 437.952 125.019 437.176C125.011 436.4 125.019 435.632 124.998 434.856C124.977 434.08 124.998 433.308 124.998 432.532C124.998 234.081 285.887 73.1914 484.357 73.1914C682.826 73.1914 843.711 234.073 843.711 432.532C843.711 433.308 843.711 434.08 843.711 434.856C843.711 435.632 843.711 436.404 843.711 437.176C843.711 437.947 843.69 438.723 843.673 439.495C843.673 440.135 843.647 440.767 843.63 441.412C843.63 441.984 843.605 442.557 843.584 443.108C843.584 443.833 843.541 444.558 843.516 445.283V445.343C843.485 446.191 843.452 447.03 843.418 447.862C843.389 448.595 843.355 449.333 843.321 450.067L843.295 450.588C843.256 451.371 843.213 452.156 843.168 452.942C843.134 453.565 843.1 454.184 843.058 454.803C842.829 458.571 842.546 462.326 842.21 466.066C842.15 466.723 842.087 467.38 842.023 468.037C842.025 468.059 842.025 468.08 842.023 468.101C841.947 468.926 841.863 469.752 841.773 470.577C841.705 471.226 841.637 471.875 841.561 472.524C841.422 473.799 841.281 475.071 841.137 476.34L840.895 478.27C840.796 479.024 840.697 479.78 840.598 480.538C840.488 481.365 840.378 482.192 840.259 483.015C840.132 483.939 839.996 484.859 839.86 485.779L839.53 487.955C839.403 488.777 839.271 489.596 839.14 490.418C839.008 491.241 838.872 492.055 838.716 492.874C838.559 493.692 838.436 494.506 838.292 495.324C838.009 496.956 837.711 498.584 837.397 500.209C837.094 501.77 836.786 503.325 836.472 504.874C836.294 505.75 836.112 506.627 835.925 507.503C835.756 508.304 835.582 509.102 835.408 509.903C835.234 510.704 835.052 511.51 834.869 512.312C824.755 502.482 811.364 497.127 796.589 497.127C783.185 497.127 769.403 501.562 755.608 510.31C746.457 516.124 736.343 526.424 725.924 539.37C716.276 525.987 702.77 517.095 687.334 514.665C684.388 514.2 681.411 513.964 678.429 513.961C643.155 513.961 621.935 544.56 613.908 572.084C609.926 581.384 590.817 623.737 562.07 652.461C518.311 696.074 507.269 741.022 528.599 789.164ZM899.594 692.393C899.547 692.529 899.501 692.665 899.45 692.817C899.352 693.089 899.25 693.356 899.14 693.623C898.971 694.022 898.792 694.42 898.602 694.815C898.474 695.078 898.343 695.34 898.203 695.599C897.852 696.252 897.467 696.897 897.045 697.533C896.536 698.299 895.979 699.055 895.374 699.801C895.078 700.17 894.764 700.539 894.441 700.904C894.225 701.15 894.017 701.396 893.771 701.637C893.436 701.998 893.084 702.358 892.728 702.715C886.346 709.041 876.614 714.588 865.614 719.676C864.367 720.242 863.105 720.807 861.827 721.372L860.555 721.936C859.707 722.309 858.858 722.683 857.968 723.047C857.12 723.416 856.234 723.785 855.356 724.146L852.71 725.24C846.523 727.784 840.183 730.209 833.996 732.609L831.354 733.636L828.737 734.658C826.999 735.336 825.284 736.014 823.594 736.693L821.075 737.706L818.602 738.72L817.385 739.229C816.58 739.568 815.782 739.903 814.994 740.242C796.797 748.049 783.71 755.991 786.458 765.846C786.535 766.126 786.62 766.393 786.713 766.651C786.961 767.379 787.298 768.073 787.718 768.717C787.965 769.105 788.249 769.469 788.566 769.802C791.802 773.16 797.683 772.63 805.104 769.963C805.707 769.743 806.321 769.514 806.945 769.268C807.369 769.107 807.793 768.937 808.217 768.763L808.862 768.496C810.558 767.775 812.356 766.969 814.192 766.096C814.654 765.88 815.116 765.672 815.583 765.426C824.654 760.991 834.941 755.016 845.144 749.575C846.709 748.727 848.278 747.913 849.839 747.107C852.438 745.763 855.021 744.478 857.561 743.291C867.225 738.75 876.304 735.523 883.611 735.523C887.037 735.523 890.065 736.227 892.584 737.838L893.008 738.118C893.28 738.304 893.547 738.508 893.805 738.72C894.751 739.498 895.59 740.397 896.299 741.396C896.507 741.692 896.723 742.002 896.91 742.32C897.105 742.642 897.295 742.977 897.478 743.325C901.086 750.173 898.067 757.267 890.998 764.226C884.213 770.905 873.658 777.452 861.657 783.516C860.771 783.965 859.876 784.415 858.973 784.856C823.267 802.39 776.51 815.594 775.857 815.76C763.398 818.991 745.579 823.231 725.504 826.403L722.535 826.865L722.048 826.937C720.973 827.099 719.896 827.255 718.816 827.408C717.646 827.575 716.471 827.736 715.292 827.891C712.997 828.197 710.684 828.479 708.355 828.74L707.931 828.786C699.61 829.732 691.078 830.419 682.525 830.711H682.398C679.328 830.822 676.257 830.877 673.187 830.877C672.695 830.877 672.208 830.877 671.716 830.877H671.292C670.745 830.877 670.198 830.877 669.646 830.877C667.865 830.854 666.087 830.809 664.312 830.741C661.394 830.636 658.495 830.47 655.614 830.241C655.504 830.241 655.389 830.241 655.279 830.215C654.181 830.13 653.091 830.033 652.001 829.923C651.42 829.872 650.843 829.812 650.267 829.745C648.528 829.561 646.802 829.352 645.089 829.117C643.948 828.964 642.807 828.795 641.696 828.612C640.585 828.43 639.402 828.235 638.261 828.036C637.74 827.942 637.218 827.845 636.701 827.743L636.582 827.718C634.928 827.404 633.29 827.059 631.667 826.683C630.722 826.471 629.776 826.259 628.843 826.005L628.279 825.86C627.817 825.746 627.363 825.623 626.905 825.5L626.655 825.432L625.192 825.008C624.662 824.86 624.132 824.703 623.602 824.546L623.415 824.491L622.033 824.067C621.511 823.905 620.994 823.736 620.476 823.566C620.052 823.426 619.628 823.282 619.204 823.142L618.267 822.816C617.368 822.499 616.475 822.17 615.587 821.828L614.739 821.501L614.043 821.221C612.689 820.679 611.355 820.113 610.04 819.525L609.158 819.101L609.014 819.033C608.7 818.889 608.391 818.741 608.081 818.609C607.466 818.317 606.86 818.011 606.258 817.706L606.075 817.613L605.202 817.155C604.206 816.632 603.225 816.089 602.259 815.526C601.716 815.213 601.177 814.892 600.643 814.564L599.829 814.063C599.405 813.809 599.019 813.55 598.616 813.288L597.556 812.584C597.168 812.326 596.787 812.063 596.411 811.795L595.728 811.311C595.007 810.794 594.3 810.264 593.608 809.721C593.239 809.437 592.87 809.145 592.505 808.873C592.064 808.517 591.627 808.157 591.195 807.792C590.83 807.491 590.474 807.181 590.118 806.868L590.088 806.842C589.706 806.508 589.329 806.169 588.956 805.824C588.587 805.489 588.218 805.146 587.857 804.798L587.815 804.756C587.438 804.395 587.064 804.031 586.7 803.658C586.335 803.284 585.962 802.915 585.606 802.538C585.249 802.161 584.885 801.775 584.533 801.385C584.181 800.995 583.859 800.638 583.528 800.257L583.418 800.13C583.095 799.756 582.777 799.383 582.463 799.002C581.788 798.19 581.13 797.359 580.491 796.508C579.853 795.657 579.228 794.787 578.617 793.896C578.418 793.604 578.223 793.315 578.032 793.027C577.639 792.447 577.254 791.871 576.878 791.297C576.502 790.723 576.129 790.149 575.759 789.575C575.391 789.01 575.031 788.444 574.678 787.879C574.495 787.595 574.321 787.315 574.152 787.031C573.818 786.494 573.492 785.958 573.172 785.424C573.13 785.352 573.087 785.28 573.041 785.207C572.731 784.686 572.426 784.173 572.133 783.656C571.964 783.376 571.807 783.1 571.65 782.807C571.493 782.515 571.311 782.214 571.145 781.917C571.052 781.76 570.967 781.603 570.878 781.446C570.789 781.289 570.763 781.243 570.713 781.141C570.39 780.576 570.078 780.002 569.775 779.419C569.635 779.165 569.5 778.91 569.351 778.66L568.927 777.842L568.503 777.032C568.228 776.485 567.956 775.934 567.689 775.387C567.553 775.115 567.422 774.844 567.299 774.577C567.019 773.996 566.752 773.419 566.489 772.847C566.383 772.613 566.277 772.385 566.179 772.151C565.933 771.613 565.7 771.078 565.475 770.544C565.361 770.277 565.246 770.01 565.14 769.743C564.92 769.208 564.716 768.678 564.496 768.148C564.394 767.894 564.292 767.639 564.199 767.385C563.789 766.316 563.405 765.252 563.046 764.192C562.952 763.929 562.863 763.666 562.783 763.408C562.626 762.933 562.473 762.462 562.333 761.987C562.073 761.156 561.834 760.329 561.616 759.506C561.54 759.248 561.472 758.989 561.409 758.73C561.205 757.956 561.019 757.183 560.849 756.411C560.73 755.898 560.62 755.385 560.522 754.872C560.467 754.613 560.416 754.354 560.374 754.1C560.272 753.587 560.183 753.078 560.103 752.569C559.975 751.803 559.865 751.04 559.772 750.279C559.734 750.025 559.704 749.775 559.679 749.524C559.653 749.274 559.623 749.016 559.598 748.757C559.492 747.743 559.411 746.734 559.365 745.729C559.365 745.475 559.339 745.22 559.331 744.97C559.31 744.466 559.297 743.965 559.293 743.465C559.025 723.204 569.279 703.724 591.199 681.814C630.247 642.802 652.976 585.717 652.976 585.717C652.976 585.717 653.591 583.321 654.863 579.878C655.037 579.399 655.224 578.903 655.427 578.39C655.668 577.771 655.928 577.132 656.208 576.473C656.577 575.595 656.984 574.684 657.425 573.759C657.586 573.412 657.756 573.06 657.929 572.712C657.993 572.593 658.052 572.474 658.112 572.356C658.226 572.123 658.345 571.885 658.468 571.652C659.146 570.35 659.889 569.04 660.694 567.755C660.911 567.407 661.118 567.064 661.364 566.72C661.828 566.028 662.309 565.351 662.806 564.689C663.052 564.358 663.307 564.036 663.565 563.714C663.989 563.184 664.447 562.662 664.909 562.158C665.092 561.958 665.274 561.759 665.465 561.568C667.729 559.232 670.316 557.328 673.242 556.31L673.611 556.187C673.857 556.107 674.103 556.03 674.353 555.962C674.642 555.886 674.934 555.818 675.231 555.755L675.367 555.729C675.985 555.605 676.612 555.521 677.241 555.479H677.296C677.623 555.479 677.954 555.445 678.289 555.445C678.713 555.445 679.103 555.445 679.518 555.492C679.943 555.526 680.367 555.576 680.791 555.644C684.31 556.2 687.66 558.295 690.544 561.53C690.676 561.678 690.807 561.831 690.934 561.984C691.597 562.766 692.217 563.582 692.792 564.43C693.029 564.774 693.262 565.13 693.487 565.495C694.055 566.406 694.59 567.369 695.098 568.383C695.302 568.807 695.497 569.197 695.688 569.612C695.785 569.824 695.879 570.036 695.972 570.253C696.159 570.677 696.337 571.101 696.511 571.55C696.684 571.974 696.854 572.436 697.015 572.886C697.765 575.008 698.365 577.18 698.809 579.386C698.911 579.891 699.004 580.4 699.093 580.913C699.404 582.763 699.618 584.629 699.733 586.502C699.767 587.045 699.793 587.596 699.81 588.147C699.847 589.442 699.847 590.752 699.81 592.078C699.789 592.583 699.763 593.087 699.725 593.596C699.393 598.391 698.453 603.125 696.926 607.683C696.659 608.476 696.375 609.264 696.078 610.057C695.874 610.583 695.654 611.113 695.442 611.643C695.018 612.695 694.526 613.763 694.009 614.798C693.623 615.583 693.22 616.367 692.787 617.151C692.499 617.673 692.202 618.195 691.901 618.716C691.138 620.017 690.314 621.307 689.429 622.588L688.89 623.355C688.161 624.373 687.39 625.384 686.579 626.387C685.117 628.19 683.56 629.914 681.914 631.552C679.401 634.067 676.708 636.397 673.857 638.523C671.282 640.425 668.85 642.513 666.58 644.769C666.33 645.024 666.084 645.274 665.847 645.524C658.718 653.004 657.06 659.602 658.663 664.606C658.739 664.835 658.82 665.06 658.905 665.28C659.032 665.615 659.18 665.937 659.329 666.255C659.435 666.468 659.545 666.68 659.664 666.879C660.142 667.699 660.711 668.463 661.36 669.156C661.441 669.245 661.526 669.33 661.61 669.415L661.865 669.669C662.122 669.918 662.393 670.159 662.679 670.394L662.963 670.623C663.154 670.771 663.353 670.92 663.552 671.047C664.065 671.409 664.597 671.741 665.147 672.044C665.367 672.162 665.571 672.281 665.821 672.396C666.643 672.8 667.494 673.145 668.366 673.426C668.607 673.507 668.849 673.579 669.095 673.651L669.405 673.731L669.829 673.846L670.198 673.935L670.592 674.02L670.986 674.1L671.359 674.164C671.639 674.215 671.924 674.257 672.208 674.295L672.479 674.333L672.971 674.384L673.272 674.414L673.772 674.452H674.065L674.587 674.478H674.82H675.303H675.524H676.228L676.698 674.452L677.237 674.418L677.898 674.355L678.513 674.283C678.653 674.283 678.798 674.244 678.938 674.219C679.251 674.172 679.569 674.121 679.883 674.062C680.659 673.916 681.428 673.73 682.186 673.507C682.961 673.284 683.724 673.02 684.471 672.718C684.722 672.616 684.976 672.51 685.226 672.4C685.65 672.217 686.074 672.022 686.465 671.81C686.795 671.649 687.122 671.471 687.444 671.289C687.932 671.013 688.415 670.721 688.886 670.407C689.971 669.694 690.998 668.896 691.956 668.019C692.181 667.816 692.406 667.595 692.626 667.388C692.732 667.286 692.838 667.184 692.94 667.074C693.152 666.858 693.364 666.65 693.572 666.417C693.987 665.967 694.392 665.495 694.785 665C695.799 663.723 696.701 662.361 697.482 660.93C703.813 649.37 714.593 630.428 726.649 611.079C727.115 610.333 727.577 609.587 728.044 608.845C728.51 608.102 728.981 607.352 729.452 606.61C730.156 605.479 730.862 604.361 731.572 603.256L732.284 602.145C732.759 601.398 733.239 600.656 733.714 599.918C735.627 596.953 737.551 594.021 739.485 591.124L740.931 588.961C743.832 584.661 746.728 580.48 749.595 576.503L751.024 574.54C753.144 571.609 755.264 568.807 757.347 566.161C758.5 564.693 759.638 563.28 760.76 561.92L762.1 560.317C762.321 560.05 762.524 559.787 762.766 559.529C763.21 559.011 763.648 558.504 764.081 558.006C764.297 557.756 764.505 557.51 764.734 557.264C765.172 556.775 765.596 556.297 766.006 555.831C766.214 555.598 766.43 555.364 766.642 555.135C767.281 554.448 767.909 553.788 768.525 553.155C768.949 552.731 769.343 552.307 769.755 551.913C772.157 549.452 774.809 547.248 777.668 545.336L778.329 544.912C778.55 544.772 778.753 544.636 778.995 544.488C779.419 544.225 779.843 543.97 780.297 543.724C791.505 537.364 800.787 536.893 806.131 542.236C809.366 545.472 811.156 550.836 811.058 558.295C811.058 558.625 811.058 558.956 811.033 559.295C811.033 559.417 811.033 559.54 811.033 559.664C811.033 560.003 811.003 560.347 810.978 560.695C810.978 561.119 810.927 561.543 810.884 561.967C810.842 562.391 810.821 562.713 810.778 563.09C810.778 563.196 810.757 563.307 810.74 563.417C810.71 563.748 810.668 564.083 810.621 564.418C810.621 564.519 810.621 564.621 810.583 564.727C810.541 565.075 810.49 565.427 810.435 565.779C810.425 565.877 810.41 565.975 810.388 566.071C810.333 566.496 810.265 566.894 810.189 567.31C810.151 567.547 810.108 567.78 810.066 568.018C809.944 568.69 809.785 569.356 809.591 570.011C809.387 570.698 809.146 571.404 808.866 572.131C808.675 572.614 808.471 573.102 808.251 573.602C808.03 574.103 807.789 574.603 807.534 575.116C807.025 576.142 806.449 577.198 805.813 578.284C805.495 578.822 805.164 579.374 804.816 579.929C804.642 580.205 804.468 580.485 804.286 580.777C803.743 581.625 803.178 582.483 802.59 583.351C802.002 584.219 801.37 585.102 800.694 586.001C799.818 587.197 798.892 588.413 797.917 589.648L797.179 590.581C795.935 592.136 794.63 593.72 793.265 595.335C792.445 596.301 791.606 597.277 790.75 598.26C790.177 598.913 789.601 599.571 789.011 600.232L788.125 601.229C786.932 602.56 785.716 603.9 784.478 605.249L783.541 606.266C782.917 606.941 782.269 607.623 781.645 608.302C781.022 608.98 780.373 609.667 779.72 610.354L777.769 612.411C777.116 613.098 776.455 613.789 775.793 614.476C775.132 615.163 774.47 615.858 773.8 616.545C772.463 617.927 771.12 619.311 769.772 620.696C750.545 640.419 730.287 660.073 723.43 672.323C722.975 673.123 722.56 673.946 722.188 674.787C721.212 677.013 720.805 678.922 721.081 680.461C721.171 680.968 721.351 681.454 721.611 681.898C721.813 682.24 722.036 682.57 722.277 682.886C722.503 683.184 722.748 683.468 723.01 683.734C723.26 683.98 723.526 684.209 723.807 684.417C725.219 685.424 726.921 685.941 728.654 685.889H729.197L729.749 685.85L730.308 685.787L730.766 685.719C730.829 685.712 730.891 685.7 730.953 685.685L731.377 685.604L731.487 685.579L731.954 685.477L732.119 685.435C732.28 685.397 732.45 685.35 732.615 685.303C732.781 685.257 733.01 685.193 733.209 685.13C733.599 685.011 733.989 684.879 734.388 684.735C734.786 684.591 735.236 684.417 735.66 684.239C736.084 684.061 736.508 683.879 736.902 683.684C737.115 683.586 737.327 683.488 737.53 683.382L738.162 683.069C738.985 682.65 739.809 682.198 740.634 681.712C741.29 681.324 741.946 680.922 742.602 680.503L743.234 680.079C743.446 679.948 743.658 679.808 743.866 679.655L744.493 679.231L744.828 679.002C745.134 678.79 745.439 678.578 745.74 678.362C746.588 677.777 747.381 677.174 748.182 676.564L748.255 676.509C748.679 676.182 749.103 675.852 749.527 675.521C751.27 674.147 752.919 672.764 754.416 671.458L755.413 670.585L755.506 670.5L756.023 670.038C757.249 668.94 758.339 667.918 759.246 667.07L759.62 666.709C759.946 666.4 760.243 666.111 760.514 665.861L761.049 665.335L761.235 665.149L761.286 665.098C761.511 664.873 761.71 664.674 761.842 664.542C762.037 664.339 762.155 664.216 762.194 664.182L762.236 664.144L762.406 663.991C762.461 663.936 762.529 663.877 762.609 663.805L762.677 663.745L762.855 663.584L763.818 662.736L764.36 662.248C764.623 662.019 764.916 661.761 765.209 661.481L765.857 660.908C765.972 660.815 766.086 660.709 766.205 660.603L766.884 660.009L767.88 659.136L768.41 658.674C770.471 656.88 772.982 654.713 775.861 652.271L777.044 651.274L778.995 649.637C779.645 649.092 780.31 648.536 780.988 647.971C783.596 645.808 786.403 643.506 789.372 641.118L791.322 639.554C792.98 638.235 794.685 636.886 796.411 635.529C797.107 634.984 797.813 634.44 798.531 633.897C799.592 633.077 800.662 632.254 801.742 631.429C802.437 630.895 803.144 630.36 803.862 629.826C807.929 626.756 812.127 623.677 816.372 620.68L818.195 619.407C819.467 618.53 820.74 617.652 822.012 616.791L823.165 616.011C824.367 615.205 825.565 614.409 826.761 613.623C827.864 612.903 828.965 612.196 830.065 611.503L831.214 610.778L832.359 610.066C833.504 609.358 834.645 608.658 835.777 607.979L836.909 607.305L839.178 605.982C839.921 605.553 840.662 605.129 841.4 604.71L841.849 604.46C842.437 604.135 843.024 603.814 843.609 603.497C844.343 603.099 845.076 602.713 845.802 602.34L846.891 601.78L847.947 601.246C848.316 601.072 848.681 600.89 849.041 600.711C851.162 599.668 853.282 598.723 855.301 597.892C855.64 597.752 855.979 597.612 856.314 597.467C856.984 597.185 857.648 596.93 858.307 596.704C858.966 596.478 859.615 596.25 860.254 596.022C860.836 595.826 861.401 595.644 861.95 595.474L862.136 595.419C862.433 595.326 862.726 595.241 863.018 595.165L863.103 595.139C863.71 594.966 864.312 594.813 864.901 594.673H864.948C865.834 594.461 866.699 594.279 867.543 594.139C867.832 594.088 868.116 594.041 868.391 594.003C868.955 593.918 869.511 593.85 870.054 593.804C870.325 593.774 870.597 593.753 870.864 593.74C871.398 593.702 871.92 593.685 872.433 593.685C872.568 593.685 872.7 593.685 872.831 593.685C873.361 593.685 873.874 593.719 874.379 593.77C874.612 593.77 874.846 593.817 875.075 593.846H875.168C875.397 593.872 875.626 593.91 875.851 593.956C876.075 594.003 876.3 594.037 876.521 594.092H876.593C876.813 594.139 877.017 594.198 877.246 594.262C877.475 594.325 877.691 594.389 877.912 594.47C878.665 594.721 879.391 595.048 880.079 595.445C880.274 595.558 880.464 595.677 880.651 595.801C880.838 595.924 881.02 596.051 881.198 596.187C881.511 596.422 881.811 596.674 882.097 596.942L882.224 597.065C882.309 597.141 882.39 597.221 882.466 597.302L882.699 597.552C884.604 599.552 886.178 601.843 887.364 604.337C887.428 604.477 887.487 604.617 887.546 604.761C887.665 605.041 887.775 605.317 887.877 605.609C888.126 606.289 888.331 606.985 888.492 607.691C889.107 610.495 888.94 613.414 888.008 616.13C887.928 616.375 887.839 616.621 887.746 616.867C887.398 617.789 886.991 618.687 886.529 619.556C886.401 619.789 886.274 620.026 886.138 620.26C884.663 622.741 882.915 625.05 880.927 627.142L880.503 627.596C879.875 628.257 879.218 628.92 878.531 629.584C878.225 629.881 877.912 630.178 877.594 630.475C877.275 630.772 876.949 631.069 876.618 631.37L876.114 631.823C875.779 632.12 875.435 632.421 875.087 632.718C874.392 633.32 873.671 633.925 872.925 634.533C872.734 634.686 872.543 634.838 872.356 634.995C871.602 635.606 870.823 636.219 870.02 636.836C868.606 637.918 867.138 639.011 865.614 640.113C864.296 641.06 862.934 642.017 861.526 642.984C859.83 644.146 858.075 645.321 856.263 646.508C853.04 648.622 849.637 650.791 846.052 653.013C845.064 653.628 844.067 654.247 843.054 654.866C833.724 660.603 823.381 666.739 812.356 673.409L809.502 675.143C806.375 677.049 803.425 678.869 800.652 680.605L799.252 681.483L796.606 683.179C795.56 683.846 794.541 684.501 793.549 685.142C792.802 685.623 792.07 686.098 791.352 686.567L789.94 687.496C789.242 687.954 788.557 688.407 787.887 688.857L787.222 689.281C786.523 689.747 785.841 690.208 785.173 690.663L784.088 691.405L782.816 692.287L781.637 693.11C779.658 694.506 777.82 695.838 776.124 697.104L775.488 697.588C774.771 698.131 774.08 698.669 773.414 699.195C773.115 699.43 772.822 699.663 772.536 699.895C771.069 701.073 769.735 702.204 768.533 703.287L767.944 703.826C767.609 704.135 767.278 704.44 766.96 704.746C766.74 704.958 766.536 705.17 766.311 705.378L766.006 705.679C765.807 705.874 765.611 706.073 765.425 706.268C764.927 706.783 764.461 707.284 764.026 707.773L763.712 708.134C763.016 708.939 762.41 709.711 761.875 710.466L761.638 710.805C761.223 711.409 760.841 712.035 760.493 712.68C760.404 712.841 760.319 713.006 760.239 713.167C760.158 713.328 760.082 713.489 760.01 713.651C759.938 713.812 759.904 713.88 759.853 713.998L759.751 714.24L759.67 714.448C759.632 714.545 759.594 714.643 759.56 714.74C759.526 714.838 759.463 715.012 759.42 715.164C759.267 715.628 759.144 716.101 759.051 716.581C759.026 716.687 759.009 716.797 758.992 716.903C758.975 717.009 758.958 717.115 758.945 717.221C758.932 717.327 758.916 717.416 758.907 717.514L758.882 717.789C758.882 717.904 758.882 718.014 758.882 718.124C758.882 718.234 758.882 718.234 758.882 718.285C758.882 718.413 758.882 718.54 758.882 718.667C758.882 718.794 758.882 718.989 758.882 719.15C758.882 719.193 758.882 719.235 758.882 719.282C758.882 719.405 758.882 719.532 758.911 719.659C758.916 719.736 758.924 719.812 758.937 719.888C758.937 720.011 758.966 720.134 758.983 720.261C759 720.389 759.039 720.609 759.072 720.783C759.072 720.783 759.072 720.783 759.072 720.808C759.106 720.974 759.14 721.139 759.183 721.305C759.225 721.47 759.268 721.656 759.318 721.83C759.412 722.165 759.522 722.496 759.645 722.831C759.717 723.026 759.789 723.221 759.87 723.416C759.87 723.454 759.899 723.497 759.916 723.535C759.971 723.662 760.027 723.794 760.086 723.921C760.145 724.048 760.243 724.273 760.328 724.447C760.493 724.799 760.671 725.151 760.866 725.507C760.964 725.685 761.061 725.863 761.163 726.041L761.477 726.58C761.583 726.758 761.689 726.94 761.803 727.122C761.861 727.212 761.925 727.297 761.994 727.377L762.1 727.487L762.215 727.593L762.342 727.691C762.429 727.752 762.519 727.807 762.613 727.856C762.711 727.903 762.813 727.945 762.919 727.987C763.029 728.026 763.139 728.055 763.258 728.085C765.993 728.7 771.616 726.435 779.088 722.492C779.512 722.263 779.974 722.025 780.428 721.779L782.701 720.541L783.812 719.922C784.601 719.498 785.411 719.023 786.234 718.552C786.73 718.273 787.23 717.988 787.735 717.704C797.611 712.018 809.413 704.716 821.609 697.584C822.75 696.914 823.899 696.248 825.044 695.586L827.346 694.115C828.497 693.453 829.648 692.799 830.798 692.152C832.336 691.281 833.874 690.423 835.412 689.578C838.864 687.682 842.303 685.85 845.691 684.12L847.947 682.98C849.446 682.239 850.928 681.518 852.396 680.817C853.866 680.122 855.32 679.453 856.759 678.811C858.195 678.175 859.609 677.566 861 676.984L862.59 676.339L862.781 676.263C871.194 672.93 878.823 670.869 884.998 670.869C886.333 670.857 887.668 670.967 888.984 671.195H889.022C889.446 671.272 889.832 671.357 890.222 671.454H890.294C890.616 671.535 890.935 671.628 891.244 671.73C891.49 671.81 891.728 671.895 891.961 671.984C892.194 672.073 892.325 672.128 892.503 672.209C892.745 672.315 892.983 672.425 893.216 672.544C893.449 672.663 893.767 672.837 894.03 672.998C895.016 673.597 895.909 674.337 896.681 675.194C897.022 675.573 897.336 675.976 897.622 676.398C897.721 676.534 897.812 676.676 897.893 676.823C898.076 677.098 898.245 677.382 898.402 677.671C898.606 678.04 898.792 678.425 898.966 678.828C899.14 679.231 899.301 679.647 899.454 680.1C899.607 680.554 899.738 680.991 899.878 681.462C900.88 685.052 900.781 688.86 899.594 692.393Z" fill="#FF9D00"/>
<path d="M843.65 432.533C843.65 433.309 843.65 434.081 843.65 434.857C843.65 435.633 843.65 436.404 843.65 437.176C843.65 437.948 843.628 438.724 843.611 439.496C843.611 440.136 843.586 440.768 843.569 441.412C843.569 441.985 843.544 442.557 843.522 443.108C843.522 443.834 843.48 444.559 843.455 445.284V445.343C843.423 446.191 843.391 447.031 843.357 447.862C843.327 448.596 843.293 449.333 843.26 450.067L843.234 450.589C843.194 451.372 843.152 452.156 843.107 452.942C843.073 453.565 843.039 454.184 842.997 454.804C842.768 458.572 842.485 462.326 842.148 466.066C842.089 466.723 842.025 467.381 841.962 468.038C841.964 468.059 841.964 468.08 841.962 468.101C841.885 468.927 841.802 469.752 841.712 470.578C841.644 471.227 841.576 471.875 841.5 472.524C841.361 473.799 841.22 475.071 841.076 476.341L840.834 478.27C840.735 479.025 840.636 479.781 840.537 480.539C840.427 481.365 840.316 482.192 840.198 483.015C840.07 483.939 839.935 484.86 839.799 485.78L839.468 487.955C839.341 488.778 839.21 489.596 839.078 490.419C838.947 491.241 838.811 492.056 838.654 492.874C838.497 493.692 838.374 494.506 838.23 495.325C837.947 496.956 837.649 498.584 837.335 500.21C837.033 501.77 836.725 503.325 836.411 504.874C836.233 505.751 836.05 506.627 835.864 507.503C835.694 508.305 835.52 509.102 835.346 509.903C835.173 510.705 834.99 511.511 834.808 512.312C824.694 502.483 811.302 497.127 796.528 497.127C783.123 497.127 769.341 501.563 755.546 510.311C746.395 516.124 736.281 526.424 725.862 539.37C716.215 525.987 702.708 517.095 687.273 514.665C684.327 514.2 681.349 513.965 678.367 513.962C643.094 513.962 621.874 544.56 613.846 572.085C609.864 581.384 590.756 623.737 562.009 652.462C518.398 696.041 507.356 740.989 528.686 789.13L526.663 789.372C525.51 789.508 524.361 789.639 523.207 789.766C521.392 789.956 519.573 790.135 517.75 790.305L515.968 790.466L514.344 790.602L512.037 790.788C511.189 790.852 510.341 790.916 509.493 790.971L506.949 791.14L506.389 791.174C505.723 791.212 505.057 791.255 504.387 791.289L503.539 791.335C502.75 791.378 501.962 791.416 501.169 791.45L498.412 791.569L495.91 791.653L494.244 791.7H493.396C492.874 791.7 492.357 791.73 491.835 791.734C491.559 791.734 491.284 791.734 491.008 791.734C490.487 791.734 489.969 791.734 489.448 791.759L487.327 791.785C486.339 791.785 485.355 791.785 484.359 791.785C482.032 791.785 479.711 791.762 477.396 791.717C476.768 791.717 476.124 791.692 475.517 791.675C474.983 791.675 474.449 791.649 473.918 791.632L471.93 791.573L469.457 791.479L467.231 791.382L466.654 791.357L464.534 791.246C463.945 791.212 463.359 791.183 462.774 791.145L461.404 791.064C459.677 790.954 457.955 790.832 456.239 790.699L454.437 790.555C453.678 790.496 452.919 790.428 452.164 790.36C451.278 790.284 450.392 790.199 449.505 790.114C448.015 789.976 446.531 789.824 445.053 789.66H444.98C466.65 741.32 455.692 696.172 411.904 652.419C383.093 623.771 363.985 581.418 360.024 572.119C352.001 544.594 330.764 513.995 295.503 513.995C292.521 513.999 289.543 514.234 286.598 514.699C271.149 517.129 257.643 526.021 248.008 539.404C237.597 526.454 227.479 516.158 218.324 510.344C204.529 501.596 190.76 497.161 177.342 497.161C160.6 497.161 145.635 504.035 135.203 516.506L134.94 516.824C134.741 516.001 134.55 515.183 134.355 514.356L134.33 514.25C133.744 511.723 133.179 509.178 132.633 506.617C131.737 502.348 130.919 498.052 130.178 493.726C129.895 492.03 129.613 490.317 129.33 488.587C129.33 488.528 129.33 488.472 129.305 488.413C129.203 487.764 129.105 487.111 129.008 486.462C128.948 486.077 128.889 485.686 128.834 485.301C128.736 484.635 128.639 483.965 128.545 483.299C128.423 482.426 128.3 481.548 128.185 480.674C128.071 479.801 127.952 478.923 127.842 478.045C127.731 477.167 127.625 476.29 127.519 475.412C127.413 474.534 127.324 473.741 127.231 472.906L127.205 472.694C127.016 470.961 126.835 469.222 126.663 467.478C126.502 465.802 126.352 464.124 126.213 462.445C126.175 462.021 126.141 461.571 126.107 461.13C126.048 460.388 125.993 459.642 125.937 458.896C125.891 458.281 125.848 457.666 125.81 457.047C125.81 456.903 125.789 456.758 125.781 456.623C125.725 455.8 125.67 454.973 125.624 454.146C125.569 453.251 125.522 452.357 125.475 451.462C125.429 450.567 125.382 449.673 125.344 448.774C125.31 447.989 125.276 447.209 125.246 446.424L125.221 445.712C125.195 444.991 125.17 444.266 125.149 443.545L125.098 441.701C125.098 440.967 125.064 440.229 125.051 439.496C125.038 438.762 125.022 437.952 125.013 437.176C125.005 436.4 125.013 435.633 124.992 434.857C124.971 434.081 124.992 433.309 124.992 432.533C124.992 234.082 285.881 73.1919 484.35 73.1919C682.82 73.1919 843.65 234.073 843.65 432.533Z" fill="#FFD21E"/>
<path d="M601.059 339.613C614.235 344.278 619.481 371.357 632.792 364.28C641.821 359.479 649.224 352.109 654.065 343.101C658.906 334.093 660.966 323.852 659.986 313.673C659.006 303.495 655.03 293.835 648.56 285.916C642.09 277.997 633.417 272.174 623.637 269.184C613.858 266.194 603.411 266.171 593.618 269.118C583.826 272.064 575.127 277.849 568.622 285.739C562.117 293.629 558.098 303.271 557.073 313.446C556.048 323.62 558.063 333.87 562.864 342.899C569.191 354.802 589.279 335.453 601.059 339.613Z" fill="#32343D"/>
<path d="M357.442 339.617C344.262 344.282 339.016 371.361 325.705 364.284C316.677 359.482 309.275 352.111 304.436 343.103C299.596 334.095 297.537 323.855 298.518 313.677C299.498 303.498 303.475 293.839 309.946 285.921C316.416 278.003 325.089 272.181 334.868 269.191C344.647 266.202 355.093 266.179 364.886 269.125C374.678 272.072 383.376 277.856 389.881 285.746C396.386 293.636 400.405 303.277 401.43 313.451C402.456 323.625 400.441 333.875 395.641 342.904C389.306 354.807 369.222 335.458 357.442 339.617Z" fill="#32343D"/>
<path d="M616.155 445.727C616.155 476.322 601.974 525.981 563.363 556.402C553.001 537.12 535.964 522.278 515.444 514.655C514.186 514.188 512.914 513.75 511.627 513.34C503.006 510.584 493.817 540.203 484.288 540.203C475.383 540.203 466.779 510.393 458.658 512.815C446.811 516.36 435.822 522.311 426.379 530.295C416.936 538.279 409.241 548.125 403.776 559.217C362.358 529.11 347.27 477.288 347.27 445.731C347.27 399.197 407.457 470.381 481.697 470.381C517.357 470.381 549.772 453.962 573.837 442.051C599.883 429.155 616.155 421.544 616.155 445.727Z" fill="#32343D"/>
<path d="M563.348 556.399C543.239 572.245 516.51 582.871 481.703 582.871C449 582.871 423.42 573.492 403.773 559.214C409.239 548.122 416.934 538.276 426.377 530.292C435.82 522.308 446.808 516.357 458.656 512.811C466.776 510.39 475.381 540.2 484.286 540.2C493.819 540.2 503.004 510.581 511.625 513.337C512.906 513.744 514.178 514.182 515.442 514.652C535.957 522.277 552.989 537.119 563.348 556.399Z" fill="#FF323D"/>
<path d="M727.316 383.409C733.964 383.409 740.462 381.438 745.989 377.746C751.516 374.053 755.824 368.805 758.368 362.664C760.912 356.523 761.578 349.766 760.282 343.246C758.986 336.727 755.786 330.738 751.086 326.037C746.386 321.337 740.398 318.135 733.879 316.837C727.359 315.539 720.601 316.204 714.46 318.746C708.318 321.289 703.068 325.595 699.374 331.121C695.679 336.647 693.707 343.144 693.705 349.791C693.703 354.206 694.572 358.578 696.26 362.657C697.948 366.735 700.424 370.442 703.545 373.564C706.667 376.686 710.372 379.162 714.451 380.851C718.53 382.541 722.901 383.41 727.316 383.409Z" fill="#FFAD03"/>
<path d="M246.451 383.409C253.098 383.409 259.596 381.438 265.123 377.746C270.651 374.053 274.959 368.805 277.503 362.664C280.047 356.523 280.713 349.766 279.417 343.246C278.121 336.727 274.92 330.738 270.221 326.037C265.521 321.337 259.533 318.135 253.013 316.837C246.494 315.539 239.736 316.204 233.594 318.746C227.453 321.289 222.203 325.595 218.508 331.121C214.814 336.647 212.842 343.144 212.84 349.791C212.838 354.206 213.706 358.578 215.395 362.657C217.083 366.735 219.559 370.442 222.68 373.564C225.801 376.686 229.507 379.162 233.586 380.851C237.665 382.541 242.036 383.41 246.451 383.409Z" fill="#FFAD03"/>
<path d="M395.226 793.832C423.685 752.098 421.666 720.774 382.619 681.749C343.571 642.725 320.841 585.653 320.841 585.653C320.841 585.653 312.36 552.502 293.014 555.546C273.669 558.591 259.475 608.127 299.982 638.45C340.488 668.774 291.924 689.335 276.332 660.878C260.739 632.421 218.176 559.269 196.108 545.276C174.039 531.283 158.519 539.127 163.722 567.966C168.925 596.805 261.176 666.704 252.198 681.817C243.221 696.93 211.607 664.058 211.607 664.058C211.607 664.058 112.623 573.979 91.0717 597.454C69.5209 620.929 107.419 640.592 161.432 673.29C215.445 705.988 219.643 714.613 211.98 726.982C204.317 739.351 85.0712 638.824 73.8718 681.44C62.6723 724.056 195.578 736.421 187.355 765.824C179.132 795.227 93.7433 710.156 76.2762 743.303C58.8091 776.45 196.765 815.466 197.897 815.755C242.47 827.314 355.665 851.811 395.226 793.832Z" fill="#FFD21E"/>
<path d="M578.553 793.832C550.095 752.098 552.113 720.774 591.161 681.749C630.209 642.725 652.938 585.653 652.938 585.653C652.938 585.653 661.419 552.502 680.765 555.546C700.111 558.591 714.304 608.127 673.798 638.451C633.291 668.774 681.855 689.335 697.448 660.878C713.04 632.421 755.582 559.269 777.651 545.276C799.719 531.283 815.244 539.127 810.04 567.966C804.837 596.805 712.587 666.704 721.56 681.817C730.533 696.93 762.172 664.041 762.172 664.041C762.172 664.041 861.157 573.962 882.708 597.437C904.259 620.912 866.36 640.575 812.347 673.273C758.335 705.971 754.136 714.596 761.799 726.965C769.462 739.334 888.708 638.807 899.908 681.423C911.107 724.039 778.202 736.404 786.42 765.807C794.638 795.21 880.019 710.122 897.486 743.286C914.953 776.45 776.981 815.433 775.865 815.721C731.292 827.314 618.097 851.811 578.553 793.832Z" fill="#FFD21E"/>
</svg>
